<svg width="21" height="21" viewBox="0 0 21 21" fill="none" xmlns="http://www.w3.org/2000/svg">
<path d="M3.60275 0.750408C3.81057 0.254837 4.3729 0.0121167 4.87607 0.200805L6.14801 0.677781C6.49021 0.806106 6.73515 1.11089 6.78683 1.47269L7.46503 6.2201L9.0238 6.81963L10.8634 1.09632C11.0382 0.552678 11.6319 0.265495 12.1666 0.465999L13.4099 0.932233C13.7394 1.05579 13.9797 1.34345 14.0426 1.68968L15.4228 9.2808L17.9518 10.2535C18.56 10.4874 19.0161 11.0029 19.1741 11.6351L20.0503 15.1398C20.2051 15.759 20.055 16.4149 19.6464 16.9052L19.572 16.9946C19.0236 17.6527 18.117 17.8884 17.3176 17.5809L2.2702 11.7935C2.01507 11.6954 1.81123 11.4971 1.7061 11.2448L0.618793 8.63524C0.515924 8.38836 0.516242 8.11055 0.619676 7.8639L3.60275 0.750408ZM14.33 8.86048L13.0588 1.86856L11.8155 1.40233L9.95862 7.17918L14.33 8.86048ZM6.39615 5.809L5.79688 1.61411L4.52495 1.13713L3.09778 4.54039L6.39615 5.809ZM2.71088 5.463L1.54187 8.25063L2.62917 10.8602L17.6765 16.6476C18.0763 16.8013 18.5295 16.6835 18.8037 16.3544L18.8782 16.2651C19.0825 16.0199 19.1575 15.6919 19.0801 15.3823L18.8939 14.6375L15.8219 13.4673L16.1779 12.5328L18.5983 13.4548L18.204 11.8776C18.1249 11.5615 17.8969 11.3038 17.5928 11.1868L2.71088 5.463ZM4.67551 8.28184L6.67551 9.03184L6.32438 9.96817L4.32438 9.21817L4.67551 8.28184ZM8.17551 9.53184L10.1755 10.2818L9.82438 11.2182L7.82438 10.4682L8.17551 9.53184ZM11.6755 10.7818L13.6755 11.5318L13.3244 12.4682L11.3244 11.7182L11.6755 10.7818ZM19.9999 21H1.99995V20H19.9999V21Z" fill="current"/>
</svg>
