<svg width="20" height="18" viewBox="0 0 20 18" fill="none" xmlns="http://www.w3.org/2000/svg">
<path d="M7.55746 1.0995C7.49859 0.51082 7.96087 0 8.55249 0H8.77732C9.06081 0 9.33097 0.120322 9.52061 0.331036L13.7227 5H16.0729C16.8305 5 17.523 5.428 17.8618 6.10557L19.3618 9.10557C19.6433 9.66863 19.6433 10.3314 19.3618 10.8944C19.023 11.572 18.3305 12 17.5729 12H13.75L9.55 17.6C9.36115 17.8518 9.06476 18 8.75 18H8.5434C7.95836 18 7.49827 17.5 7.54685 16.917L7.9566 12H3.23419C2.93741 12 2.65596 11.8682 2.46597 11.6402L0.231779 8.95916C0.0820166 8.77944 0 8.55291 0 8.31898V3C0 2.44772 0.447715 2 1 2H1.76581C2.06259 2 2.34404 2.13182 2.53403 2.35982L4.73419 5H7.94751L7.55746 1.0995ZM8.95249 5H12.3773L8.77732 1H8.55249L8.95249 5ZM3.43248 5L1.76581 3H1V5H3.43248ZM1 6V8.31898L3.23419 11H17.5729C17.9517 11 18.298 10.786 18.4674 10.4472C18.6081 10.1657 18.6081 9.83431 18.4674 9.55279L18.191 9H15V8H17.691L16.9674 6.55279C16.798 6.214 16.4517 6 16.0729 6H1ZM8.96007 12L8.5434 17H8.75L12.5 12H8.96007ZM7 9H5V8H7V9ZM11 9H9V8H11V9Z" fill="#141414"/>
</svg>
