<svg width="23" height="19" viewBox="0 0 23 19" fill="none" xmlns="http://www.w3.org/2000/svg">
<path d="M8.12199 0.0879845C8.42494 0.00142944 8.75096 0.0627054 9.0018 0.253346L14.7682 4.63584L16.7807 3.84404C17.4315 3.58799 18.1688 3.69047 18.7251 4.11431L21.7437 6.41419C22.786 7.20833 22.7617 8.78469 21.6954 9.54631C21.5571 9.64506 21.4066 9.72528 21.2475 9.78494L7.60337 14.9015C7.37428 14.9874 7.12163 14.9863 6.89327 14.8985L4.0242 13.795C3.76444 13.6951 3.55807 13.4915 3.45471 13.2331L0.741475 6.44997C0.521376 5.89973 0.825399 5.27987 1.39523 5.11706L2.38249 4.83499C2.67354 4.75183 2.9866 4.80498 3.23389 4.97954L7.04932 7.67279L8.93639 6.93033L6.54061 1.73947C6.28353 1.18246 6.58398 0.527418 7.17385 0.358884L8.12199 0.0879845ZM9.8685 6.5636L13.6793 5.06427L8.39672 1.04951L7.44857 1.32041L9.8685 6.5636ZM5.93587 8.11086L2.65721 5.79651L1.66995 6.07858L2.9524 9.28469L5.93587 8.11086ZM3.32379 10.2132L4.38318 12.8617L7.25225 13.9651L20.8964 8.84861C20.9737 8.8196 21.0469 8.78059 21.1141 8.73258C21.6326 8.36225 21.6444 7.59576 21.1376 7.20963L20.1562 6.46185L16.9312 7.71599L16.5688 6.78399L19.2238 5.75148L18.119 4.90974C17.8409 4.69782 17.4722 4.64658 17.1468 4.7746L3.32379 10.2132ZM12.553 8.29042L14.303 7.54042L14.697 8.45956L12.947 9.20956L12.553 8.29042ZM9.55304 9.54042L11.303 8.79042L11.697 9.70956L9.94696 10.4596L9.55304 9.54042ZM6.55304 10.7904L8.30304 10.0404L8.69696 10.9596L6.94696 11.7096L6.55304 10.7904ZM21 19H3V18H21V19Z" fill="current"/>
</svg>
